<svg width="24" height="24" xmlns="http://www.w3.org/2000/svg">

 <g>
  <title>Layer 1</title>
  <path id="svg_1" fill="none" d="m0,0l24,0l0,24l-24,0l0,-24z"/>
  <path stroke="null" id="svg_2" d="m16.48661,12.35714l-3.81697,0l0,3.81697c0,0.41986 -0.34353,0.76339 -0.76339,0.76339s-0.76339,-0.34353 -0.76339,-0.76339l0,-3.81697l-3.81697,0c-0.41987,0 -0.76339,-0.34353 -0.76339,-0.76339s0.34353,-0.76339 0.76339,-0.76339l3.81697,0l0,-3.81697c0,-0.41987 0.34353,-0.76339 0.76339,-0.76339s0.76339,0.34353 0.76339,0.76339l0,3.81697l3.81697,0c0.41986,0 0.76339,0.34353 0.76339,0.76339s-0.34353,0.76339 -0.76339,0.76339z"/>
 </g>
</svg>