<svg width="24" height="24" xmlns="http://www.w3.org/2000/svg">

 <g>
  <title>Layer 1</title>
  <path stroke="null" id="svg_1" fill="none" d="m0.25,0.125l23.5,0l0,23.5l-23.5,0l0,-23.5z"/>
  <path stroke="null" id="svg_2" d="m9.03125,11.09375l-1.1875,0l0,-1.1875c0,-0.32656 -0.26719,-0.59375 -0.59375,-0.59375s-0.59375,0.26719 -0.59375,0.59375l0,1.1875l-1.1875,0c-0.32656,0 -0.59375,0.26719 -0.59375,0.59375s0.26719,0.59375 0.59375,0.59375l1.1875,0l0,1.1875c0,0.32656 0.26719,0.59375 0.59375,0.59375s0.59375,-0.26719 0.59375,-0.59375l0,-1.1875l1.1875,0c0.32656,0 0.59375,-0.26719 0.59375,-0.59375s-0.26719,-0.59375 -0.59375,-0.59375zm6.53125,0.59375c0.98563,0 1.77531,-0.79563 1.77531,-1.78125s-0.78969,-1.78125 -1.77531,-1.78125c-0.19,0 -0.37406,0.02969 -0.54031,0.08313c0.33844,0.48094 0.53437,1.06281 0.53437,1.69812s-0.20187,1.21125 -0.53437,1.69813c0.16625,0.05344 0.35031,0.08313 0.54031,0.08313zm-2.96875,0c0.98563,0 1.77531,-0.79563 1.77531,-1.78125s-0.78969,-1.78125 -1.77531,-1.78125s-1.78125,0.79562 -1.78125,1.78125s0.79563,1.78125 1.78125,1.78125zm0,1.1875c-1.1875,0 -3.5625,0.59375 -3.5625,1.78125l0,0.59375c0,0.32656 0.26719,0.59375 0.59375,0.59375l5.9375,0c0.32656,0 0.59375,-0.26719 0.59375,-0.59375l0,-0.59375c0,-1.1875 -2.375,-1.78125 -3.5625,-1.78125zm3.93063,0.095c0.49281,0.43344 0.81937,0.98562 0.81937,1.68625l0,0.89063c0,0.10094 -0.01187,0.20188 -0.02969,0.29688l1.51406,0c0.16625,0 0.29688,-0.13062 0.29688,-0.29688l0,-0.89063c0,-0.91438 -1.40719,-1.47844 -2.60062,-1.68625z"/>
 </g>
</svg>